<svg width="160" height="160" xmlns="http://www.w3.org/2000/svg">
 <!-- Created with Method Draw - http://github.com/duopixel/Method-Draw/ -->
 <g>
  <title>background</title>
  <rect fill="none" id="canvas_background" height="162" width="162" y="-1" x="-1"/>
  <g display="none" overflow="visible" y="0" x="0" height="100%" width="100%" id="canvasGrid">
   <rect fill="url(#gridpattern)" stroke-width="0" y="0" x="0" height="100%" width="100%"/>
  </g>
 </g>
 <g>
  <title>Layer 1</title>
  <path opacity="0.5" id="svg_1" d="m80.181807,44.500005c-0.741961,0 -1.402077,0.304576 -1.959044,0.857052c-0.556496,0.552021 -1.016799,1.343024 -1.399834,2.330898c-0.765962,1.975475 -1.237134,4.75057 -1.494863,8.074003c-0.257222,3.317039 -0.30057,7.179423 -0.193706,11.314029c-9.165045,3.759893 -27.753463,11.523063 -29.24669,13.256415c-1.988059,2.307761 -1.345721,4.952585 -0.544585,6.708327l30.558802,-6.219729c0.645945,8.105371 1.564384,16.133313 2.36473,22.423822c-2.988466,0.874627 -8.566961,2.601614 -9.718432,3.672542c-1.586248,1.475292 -1.586236,6.239714 -1.586236,6.239714l12.507147,-1.017242c0.294571,2.053703 0.47879,3.252026 0.47879,3.252026l0.018277,0.108135l0.098686,0l0.230255,0l0.098683,0l0.018277,-0.108135c0,0 0.183869,-1.198344 0.478787,-3.252026l12.510803,1.017242c0,0 0.000014,-4.764422 -1.586239,-6.239714c-1.151901,-1.071343 -6.734469,-2.802244 -9.722088,-3.676572c0.798693,-6.271204 1.715512,-14.268428 2.361079,-22.347685l30.200631,6.14762c0.801127,-1.755742 1.447138,-4.400566 -0.540926,-6.708327c-1.474754,-1.711899 -19.614005,-9.302404 -28.892164,-13.112249c0.110856,-4.188195 0.070108,-8.103215 -0.190057,-11.458195l0,-0.00801c-0.25786,-3.319767 -0.729534,-6.092159 -1.494856,-8.065993c-0.382925,-0.987601 -0.839482,-1.778684 -1.396177,-2.330898c-0.556972,-0.552476 -1.21708,-0.857052 -1.959037,-0.857052l-0.000014,0.000002z" stroke-width="1.5" stroke="#000" fill="#fff"/>
 </g>
</svg>