<svg width="298" height="168" xmlns="http://www.w3.org/2000/svg">
 <!-- Created with Method Draw - http://github.com/duopixel/Method-Draw/ -->

 <g>
  <title>background</title>
  <rect fill="none" id="canvas_background" height="170" width="300" y="-1" x="-1"/>
  <g display="none" overflow="visible" y="0" x="0" height="100%" width="100%" id="canvasGrid">
   <rect fill="url(#gridpattern)" stroke-width="0" y="0" x="0" height="100%" width="100%"/>
  </g>
 </g>
 <g>
  <title>Layer 1</title>
  <path opacity="0.5" id="svg_2" d="m149.227898,39.500004c-0.930065,0 -1.757534,0.381793 -2.455704,1.074333c-0.69758,0.691971 -1.27458,1.683509 -1.754722,2.92183c-0.96015,2.4763 -1.550774,5.95494 -1.873843,10.120934c-0.322434,4.157978 -0.376771,8.99956 -0.242814,14.182376c-11.488581,4.713105 -34.789564,14.444403 -36.661355,16.617197c-2.492075,2.892828 -1.68689,6.20817 -0.682649,8.40903l38.306116,-7.796563c0.809705,10.160254 1.960989,20.22345 2.96424,28.108736c-3.746106,1.096364 -10.73887,3.261178 -12.182263,4.60361c-1.988396,1.84931 -1.988381,7.821614 -1.988381,7.821614l15.677978,-1.275134c0.369251,2.57436 0.600173,4.076483 0.600173,4.076483l0.022911,0.135549l0.123705,0l0.28863,0l0.123702,0l0.022911,-0.135549c0,0 0.230484,-1.50215 0.60017,-4.076483l15.682561,1.275134c0,0 0.000018,-5.972304 -1.988384,-7.821614c-1.443933,-1.342951 -8.441802,-3.512673 -12.186847,-4.608661c1.001179,-7.861087 2.150432,-17.885777 2.959663,-28.013298l37.857142,7.706173c1.00423,-2.20086 1.814019,-5.516203 -0.678063,-8.40903c-1.848636,-2.145902 -24.586578,-11.660761 -36.216949,-16.436482c0.138961,-5.249992 0.087882,-10.157552 -0.23824,-14.36309l0,-0.01004c-0.323233,-4.161399 -0.914487,-7.63665 -1.873834,-10.110893c-0.480005,-1.237979 -1.052308,-2.229618 -1.750138,-2.92183c-0.698176,-0.69254 -1.525636,-1.074333 -2.455695,-1.074333l-0.000018,0.000003z" stroke-width="1.5" stroke="#000" fill="#fff"/>
 </g>
</svg>