<svg width="208" height="58" xmlns="http://www.w3.org/2000/svg">
 <!-- Created with Method Draw - http://github.com/duopixel/Method-Draw/ -->
 <g>
  <title>background</title>
  <rect fill="none" id="canvas_background" height="60" width="210" y="-1" x="-1"/>
 </g>
 <g>
  <title>Layer 1</title>
  <path opacity="0.24" id="svg_2" d="m204.842154,3.446135c-4.225939,-3.807331 -13.804068,0.761466 -19.086492,3.847199c-1.514959,-0.239204 -3.103673,-0.368773 -4.760161,-0.368773c-6.675787,0 -12.063859,1.963467 -16.158235,5.667143c-4.656506,4.263813 -7.237917,9.847234 -7.237917,16.299764c0,0.055814 0.001993,0.111629 0.001993,0.167443c6.552198,-10.265841 16.62867,-15.528331 19.299782,-16.917708c0.422594,-0.197343 0.673758,0.308972 0.281065,0.504322c-0.029901,0.083721 -0.029901,0 0,0c-4.49305,2.691046 -12.825325,10.483118 -18.231337,21.699796l-0.00598,-0.013954c-3.422612,7.070474 -6.312994,17.001429 -0.532229,20.647298c4.379428,2.754834 12.219341,-0.494355 18.528349,-4.620625c1.522933,0.215284 3.123606,0.328906 4.813982,0.328906c11.641265,0 19.80809,-6.424623 22.722393,-15.795442l-15.990792,-0.027907c-0.671765,3.310983 -2.91829,5.0791 -6.424623,5.0791c-4.405342,0 -7.433267,-2.413968 -7.63061,-7.997389l30.354997,-0.027907c0.055814,-1.152166 -0.083721,-1.963467 -0.083721,-2.862475c0,-10.467171 -6.265153,-18.647951 -16.455247,-21.255275c4.148197,-2.579417 11.908376,-6.396716 15.643946,-3.35085c2.804668,2.272439 1.261801,7.042567 0.588043,9.006033c-0.111629,0.506315 0.478408,0.590037 0.590037,0.113622c1.399344,-3.530253 1.821938,-8.272474 -0.227244,-10.122319zm-29.354326,46.664728c-4.921624,2.940217 -11.707046,5.061159 -15.027996,2.56945c-2.477756,-1.863798 -1.387384,-6.912998 0.79336,-11.836615c1.323596,1.97742 2.980084,3.759491 4.929597,5.242556c2.635232,1.981407 5.730931,3.322943 9.305038,4.024608zm-1.112299,-25.176228c0.083721,-4.853849 3.562147,-6.956852 7.210009,-6.956852c3.843212,0 6.956852,2.216624 6.956852,6.956852l-14.166861,0z" fill-opacity="null" stroke-opacity="null" stroke-width="1.5" stroke="#000" fill="#fff"/>
 </g>
</svg>