<svg width="118" height="58" xmlns="http://www.w3.org/2000/svg">
 <!-- Created with Method Draw - http://github.com/duopixel/Method-Draw/ -->

 <g>
  <title>background</title>
  <rect x="-1" y="-1" width="120" height="60" id="canvas_background" fill="none"/>
 </g>
 <g>
  <title>Layer 1</title>
  <path opacity="0.24" id="svg_1" d="m113.868215,3.919358c-4.14768,-3.736825 -13.548436,0.747365 -18.733036,3.775954c-1.486904,-0.234774 -3.046197,-0.361944 -4.67201,-0.361944c-6.552161,0 -11.840453,1.927106 -15.859007,5.562196c-4.570274,4.184853 -7.10388,9.664877 -7.10388,15.997915c0,0.054781 0.001956,0.109561 0.001956,0.164342c6.430861,-10.075732 16.32073,-15.240768 18.942377,-16.604416c0.414768,-0.193689 0.661281,0.30325 0.27586,0.494983c-0.029347,0.082171 -0.029347,0 0,0c-4.409845,2.641211 -12.587818,10.288986 -17.893718,21.297946l-0.005869,-0.013695c-3.35923,6.939538 -6.196086,16.686587 -0.522373,20.264939c4.298327,2.703818 11.993056,-0.4852 18.18523,-4.535058c1.49473,0.211297 3.065762,0.322815 4.724834,0.322815c11.425685,0 19.441272,-6.305648 22.301606,-15.502933l-15.694665,-0.02739c-0.659325,3.249668 -2.864247,4.985042 -6.305648,4.985042c-4.323761,0 -7.295613,-2.369264 -7.489302,-7.849289l29.792865,-0.02739c0.054781,-1.13083 -0.082171,-1.927106 -0.082171,-2.809466c0,-10.273334 -6.149131,-18.302617 -16.150519,-20.861657c4.071378,-2.53165 11.68785,-6.278257 15.354242,-3.288797c2.752729,2.230356 1.238435,6.912148 0.577154,8.839254c-0.109561,0.496939 0.469549,0.57911 0.57911,0.111518c1.37343,-3.464878 1.788198,-8.119279 -0.223036,-9.934868zm-28.810725,45.800562c-4.830482,2.885768 -11.490248,4.967434 -14.749698,2.521868c-2.431871,-1.829283 -1.361691,-6.784979 0.778668,-11.617417c1.299085,1.940801 2.924897,3.68987 4.838308,5.145471c2.586431,1.944714 5.624802,3.261407 9.132722,3.950078zm-1.091701,-24.71c0.082171,-4.763963 3.496181,-6.828021 7.07649,-6.828021c3.772041,0 6.828021,2.175576 6.828021,6.828021l-13.904511,0z" fill-opacity="null" stroke-opacity="null" stroke-width="1.5" stroke="#000" fill="#fff"/>
 </g>
</svg>