<svg width="500" height="358" xmlns="http://www.w3.org/2000/svg">
 <!-- Created with Method Draw - http://github.com/duopixel/Method-Draw/ -->
 <g>
  <title>background</title>
  <rect fill="none" id="canvas_background" height="360" width="502" y="-1" x="-1"/>
  <g display="none" overflow="visible" y="0" x="0" height="100%" width="100%" id="canvasGrid">
   <rect fill="url(#gridpattern)" stroke-width="0" y="0" x="0" height="100%" width="100%"/>
  </g>
 </g>
 <g>
  <title>Layer 1</title>
  <path opacity="0.5" id="svg_1" d="m250.468592,87.500007c-1.91238,0 -3.613805,0.785035 -5.049369,2.209022c-1.434349,1.422816 -2.620765,3.461597 -3.608023,6.007809c-1.974241,5.091719 -3.188671,12.244427 -3.852958,20.810459c-0.662981,8.549551 -0.77471,18.504713 -0.49927,29.161515c-23.622588,9.690992 -71.533598,29.70029 -75.382338,34.167944c-5.124155,5.948174 -3.46855,12.765114 -1.403649,17.290478l78.764262,-16.031134c1.6649,20.891309 4.032146,41.58305 6.095011,57.796615c-7.702667,2.254322 -22.081048,6.705568 -25.048924,9.465849c-4.0885,3.802515 -4.08847,16.082645 -4.08847,16.082645l32.236741,-2.621905c0.759246,5.293347 1.234064,8.381983 1.234064,8.381983l0.047108,0.278714l0.254359,0l0.593475,0l0.254353,0l0.047108,-0.278714c0,0 0.473916,-3.088691 1.234057,-8.381983l32.246165,2.621905c0,0 0.000037,-12.280131 -4.088476,-16.082645c-2.968985,-2.761348 -17.357863,-7.222687 -25.058348,-9.476236c2.058604,-16.163808 4.421674,-36.776373 6.085599,-57.600376l77.84109,15.845276c2.064877,-4.525364 3.729948,-11.342305 -1.394219,-17.290478c-3.801129,-4.41236 -50.554424,-23.976622 -74.46856,-33.796363c0.285728,-10.794927 0.180702,-20.885754 -0.489864,-29.533096l0,-0.020645c-0.664625,-8.556584 -1.880349,-15.702326 -3.85294,-20.789814c-0.986976,-2.545507 -2.163735,-4.584496 -3.598599,-6.007809c-1.435576,-1.423987 -3.136983,-2.209022 -5.04935,-2.209022l-0.000037,0.000006z" stroke-width="1.5" stroke="#000" fill="#fff"/>
 </g>
</svg>