<svg width="500" height="500" xmlns="http://www.w3.org/2000/svg">
 <!-- Created with Method Draw - http://github.com/duopixel/Method-Draw/ -->
 <g>
  <title>background</title>
  <rect fill="none" id="canvas_background" height="502" width="502" y="-1" x="-1"/>
  <g display="none" overflow="visible" y="0" x="0" height="100%" width="100%" id="canvasGrid">
   <rect fill="url(#gridpattern)" stroke-width="0" y="0" x="0" height="100%" width="100%"/>
  </g>
 </g>
 <g>
  <title>Layer 1</title>
  <path opacity="0.5" id="svg_1" d="m250.676015,118.000008c-2.758843,0 -5.213358,1.13251 -7.284335,3.186786c-2.069225,2.052587 -3.780776,4.993779 -5.205017,8.667003c-2.848085,7.345431 -4.60005,17.664091 -5.558366,30.021646c-0.956432,12.333778 -1.117614,26.695323 -0.720259,42.069071c-34.078489,13.980448 -103.196011,42.846321 -108.748292,49.291461c-7.392223,8.580972 -5.00381,18.415247 -2.024936,24.943641l113.627133,-23.126883c2.401823,30.138283 5.816866,59.988663 8.792803,83.378725c-11.112045,3.252136 -31.854627,9.673606 -36.136153,13.655651c-5.898164,5.485595 -5.89812,23.201193 -5.89812,23.201193l46.505463,-3.782421c1.095306,7.636304 1.780289,12.092041 1.780289,12.092041l0.06796,0.402079l0.366945,0l0.85616,0l0.366936,0l0.06796,-0.402079c0,0 0.683683,-4.455816 1.78028,-12.092041l46.519058,3.782421c0,0 0.000053,-17.715599 -5.898129,-23.201193c-4.283127,-3.983584 -25.040853,-10.419614 -36.149748,-13.670636c2.969789,-23.318281 6.378809,-53.05444 8.779225,-83.095626l112.295345,22.858759c2.978838,-6.528394 5.380909,-16.362669 -2.011332,-24.943641c-5.483596,-6.365372 -72.930974,-34.589225 -107.430055,-48.755409c0.412198,-15.573009 0.260684,-30.130269 -0.70669,-42.605123l0,-0.029783c-0.958803,-12.343924 -2.712634,-22.652537 -5.55834,-29.991864c-1.423835,-3.672207 -3.121454,-6.613699 -5.191422,-8.667003c-2.070994,-2.054276 -4.525483,-3.186786 -7.284309,-3.186786l-0.000053,0.000009z" stroke-width="1.5" stroke="#000" fill="#fff"/>
 </g>
</svg>