<svg width="320" height="240" xmlns="http://www.w3.org/2000/svg">
 <!-- Created with Method Draw - http://github.com/duopixel/Method-Draw/ -->
 <g>
  <title>background</title>
  <rect fill="none" id="canvas_background" height="242" width="322" y="-1" x="-1"/>
  <g display="none" overflow="visible" y="0" x="0" height="100%" width="100%" id="canvasGrid">
   <rect fill="url(#gridpattern)" stroke-width="0" y="0" x="0" height="100%" width="100%"/>
  </g>
 </g>
 <g>
  <title>Layer 1</title>
  <path opacity="0.5" id="svg_1" d="m160.338009,54.000004c-1.379422,0 -2.606679,0.566255 -3.642168,1.593393c-1.034613,1.026293 -1.890388,2.49689 -2.602509,4.333502c-1.424042,3.672715 -2.300025,8.832046 -2.779183,15.010824c-0.478216,6.166889 -0.558807,13.347662 -0.360129,21.034536c-17.039245,6.990224 -51.598007,21.423161 -54.374147,24.645731c-3.696112,4.290486 -2.501905,9.207624 -1.012468,12.471821l56.813568,-11.563442c1.200912,15.069142 2.908433,29.994332 4.396402,41.689363c-5.556022,1.626068 -15.927314,4.836803 -18.068077,6.827826c-2.949082,2.742798 -2.94906,11.600597 -2.94906,11.600597l23.252732,-1.891211c0.547653,3.818152 0.890144,6.046021 0.890144,6.046021l0.03398,0.201039l0.183472,0l0.42808,0l0.183468,0l0.03398,-0.201039c0,0 0.341841,-2.227908 0.89014,-6.046021l23.25953,1.891211c0,0 0.000027,-8.857799 -2.949065,-11.600597c-2.141563,-1.991792 -12.520427,-5.209807 -18.074875,-6.835318c1.484895,-11.659141 3.189404,-26.527221 4.389613,-41.547814l56.147674,11.42938c1.489419,-3.264197 2.690455,-8.181335 -1.005666,-12.471821c-2.741798,-3.182686 -36.465488,-17.294613 -53.715028,-24.377705c0.206099,-7.786505 0.130342,-15.065135 -0.353345,-21.302562l0,-0.014891c-0.479401,-6.171962 -1.356317,-11.326269 -2.77917,-14.995932c-0.711917,-1.836103 -1.560727,-3.30685 -2.595711,-4.333502c-1.035497,-1.027138 -2.262742,-1.593393 -3.642154,-1.593393l-0.000027,0.000004z" stroke-width="1.5" stroke="#000" fill="#fff"/>
 </g>
</svg>