<svg width="320" height="224" xmlns="http://www.w3.org/2000/svg">
 <!-- Created with Method Draw - http://github.com/duopixel/Method-Draw/ -->
 <g>
  <title>background</title>
  <rect fill="none" id="canvas_background" height="226" width="322" y="-1" x="-1"/>
 </g>
 <g>
  <title>Layer 1</title>
  <path opacity="0.5" id="svg_7" d="m160.307276,52.000009c-1.25402,0 -2.369708,0.514777 -3.311061,1.448539c-0.940557,0.932994 -1.718534,2.269899 -2.365917,3.939547c-1.294584,3.338832 -2.090932,8.029132 -2.52653,13.646202c-0.434742,5.606263 -0.508006,12.134237 -0.32739,19.122304c-15.490222,6.354749 -46.907276,19.4756 -49.43104,22.405209c-3.360101,3.900442 -2.274459,8.370567 -0.920425,11.338018l51.648695,-10.512219c1.091738,13.699219 2.64403,27.267573 3.996728,37.899419c-5.050929,1.478244 -14.479375,4.397094 -16.425523,6.207114c-2.680984,2.493452 -2.680964,10.545997 -2.680964,10.545997l21.138846,-1.719282c0.497866,3.471047 0.809222,5.496382 0.809222,5.496382l0.030891,0.182763l0.166793,0l0.389164,0l0.166789,0l0.030891,-0.182763c0,0 0.310765,-2.025371 0.809218,-5.496382l21.145026,1.719282c0,0 0.000024,-8.052544 -2.680968,-10.545997c-1.946876,-1.81072 -11.382205,-4.736188 -16.431703,-6.213925c1.349904,-10.599218 2.899458,-24.115654 3.990557,-37.770738l51.043336,10.390345c1.354017,-2.967452 2.445868,-7.437577 -0.914242,-11.338018c-2.492543,-2.893351 -33.150441,-15.722374 -48.831841,-22.161549c0.187363,-7.07864 0.118493,-13.695576 -0.321223,-19.365964l0,-0.013538c-0.435819,-5.610874 -1.233016,-10.296607 -2.526518,-13.632665c-0.647197,-1.669185 -1.418842,-3.006227 -2.359737,-3.939547c-0.941361,-0.933762 -2.057038,-1.448539 -3.311049,-1.448539l-0.000024,0.000004z" fill-opacity="null" stroke-opacity="null" stroke-width="1.5" stroke="#000" fill="#fff"/>
 </g>
</svg>