<svg width="384" height="240" xmlns="http://www.w3.org/2000/svg">
 <!-- Created with Method Draw - http://github.com/duopixel/Method-Draw/ -->
 <g>
  <title>background</title>
  <rect fill="none" id="canvas_background" height="242" width="386" y="-1" x="-1"/>
 </g>
 <g>
  <title>Layer 1</title>
  <path opacity="0.5" id="svg_1" d="m192.330321,55.500004c-1.348071,0 -2.547436,0.553385 -3.559391,1.55718c-1.011099,1.002969 -1.847424,2.440142 -2.543361,4.235013c-1.391678,3.589244 -2.247752,8.631317 -2.71602,14.669668c-0.467347,6.026733 -0.546107,13.044306 -0.351945,20.556478c-16.651989,6.831355 -50.425323,20.93627 -53.13837,24.0856c-3.612109,4.192975 -2.445043,8.998359 -0.989457,12.18837l55.522349,-11.300636c1.173618,14.726661 2.842332,29.312642 4.296483,40.741877c-5.429749,1.589112 -15.565329,4.726876 -17.657438,6.672648c-2.882058,2.680461 -2.882036,11.336947 -2.882036,11.336947l22.72426,-1.848228c0.535206,3.731376 0.869914,5.908611 0.869914,5.908611l0.033208,0.19647l0.179303,0l0.418351,0l0.179298,0l0.033208,-0.19647c0,0 0.334072,-2.177274 0.869909,-5.908611l22.730903,1.848228c0,0 0.000026,-8.656486 -2.88204,-11.336947c-2.092891,-1.946524 -12.235871,-5.091402 -17.664081,-6.67997c1.451147,-11.39416 3.116918,-25.924328 4.289849,-40.603544l54.871588,11.169621c1.455569,-3.190011 2.629308,-7.995395 -0.98281,-12.18837c-2.679484,-3.110352 -35.636725,-16.901553 -52.494231,-23.823666c0.201415,-7.609538 0.12738,-14.722745 -0.345314,-20.818412l0,-0.014553c-0.468506,-6.03169 -1.325492,-11.068853 -2.716007,-14.655115c-0.695737,-1.794374 -1.525256,-3.231694 -2.536717,-4.235013c-1.011963,-1.003794 -2.211316,-1.55718 -3.559378,-1.55718l-0.000026,0.000004z" stroke-width="1.5" stroke="#000" fill="#fff"/>
 </g>
</svg>