<svg width="240" height="160" xmlns="http://www.w3.org/2000/svg">
 <!-- Created with Method Draw - http://github.com/duopixel/Method-Draw/ -->
 <g>
  <title>background</title>
  <rect fill="none" id="canvas_background" height="162" width="242" y="-1" x="-1"/>
 </g>
 <g>
  <title>Layer 1</title>
  <path opacity="0.5" id="svg_8" d="m120.220216,37.000004c-0.898714,0 -1.698291,0.368924 -2.372927,1.03812c-0.674066,0.668646 -1.231616,1.626761 -1.695574,2.823342c-0.927785,2.39283 -1.498501,5.754212 -1.81068,9.779779c-0.311565,4.017822 -0.364071,8.696204 -0.23463,13.704319c-11.101326,4.554237 -33.616883,13.957514 -35.42558,16.057067c-2.408073,2.795317 -1.630029,5.998906 -0.659638,8.12558l37.0149,-7.533757c0.782412,9.817774 1.894888,19.541762 2.864322,27.161251c-3.619833,1.059408 -10.376886,3.151251 -11.771626,4.448432c-1.921372,1.786974 -1.921357,7.557965 -1.921357,7.557965l15.149507,-1.232152c0.356804,2.487584 0.579942,3.939074 0.579942,3.939074l0.022138,0.13098l0.119535,0l0.278901,0l0.119532,0l0.022138,-0.13098c0,0 0.222715,-1.451516 0.57994,-3.939074l15.153936,1.232152c0,0 0.000017,-5.77099 -1.92136,-7.557965c-1.395261,-1.297683 -8.157247,-3.394268 -11.776054,-4.453313c0.967431,-7.596107 2.077945,-17.282886 2.859899,-27.06903l36.581059,7.446414c0.970379,-2.126674 1.752872,-5.330263 -0.655207,-8.12558c-1.786323,-2.073568 -23.757817,-11.267702 -34.996154,-15.882444c0.134277,-5.073026 0.08492,-9.815163 -0.230209,-13.878942l0,-0.009702c-0.312337,-4.021127 -0.883661,-7.379235 -1.810671,-9.770077c-0.463825,-1.196249 -1.016837,-2.154463 -1.691145,-2.823342c-0.674642,-0.669196 -1.47421,-1.03812 -2.372919,-1.03812l-0.000017,0.000003z" fill-opacity="null" stroke-opacity="null" stroke-width="1.5" stroke="#000" fill="#fff"/>
 </g>
</svg>