<svg width="500" height="500" xmlns="http://www.w3.org/2000/svg">
 <!-- Created with Method Draw - http://github.com/duopixel/Method-Draw/ -->
 <g>
  <title>background</title>
  <rect fill="none" id="canvas_background" height="502" width="502" y="-1" x="-1"/>
  <g display="none" overflow="visible" y="0" x="0" height="100%" width="100%" id="canvasGrid">
   <rect fill="url(#gridpattern)" stroke-width="0" y="0" x="0" height="100%" width="100%"/>
  </g>
 </g>
 <g>
  <title>Layer 1</title>
  <path opacity="0.5" id="svg_1" d="m88.350128,174.730401c0.008999,-3.424935 3.074758,-24.424012 6.815269,-46.664848c11.663528,-69.351023 11.835099,-69.657069 26.643755,-47.553363l8.761402,13.077494l25.622662,-12.934339c33.890759,-17.107952 74.330305,-23.436764 111.50368,-17.450192c15.779698,2.541344 32.523113,6.671888 37.207617,9.178963c9.30059,4.977385 8.704411,9.251908 -6.11899,43.87202c-8.124371,18.974677 -8.904213,19.515458 -22.93815,15.907896c-23.886245,-6.139881 -62.779938,-4.205958 -81.557985,4.055397l-17.606235,7.746083l12.35828,12.899234c6.797086,7.094771 10.647558,13.956706 8.55669,15.248885c-2.090948,1.292219 -27.530372,3.810801 -56.532007,5.596631c-43.512287,2.679562 -52.727842,2.158782 -52.715976,-2.979848l-0.000013,-0.000013zm224.054175,191.214968l-18.849161,-24.96535l17.162276,-16.59568c17.66389,-17.080518 30.403338,-41.061381 36.015803,-67.796927l3.202863,-15.256849l-18.473037,2.953808c-10.160185,1.62481 -18.535562,1.413688 -18.611945,-0.468951c-0.356733,-8.789553 47.949595,-95.434712 52.645023,-94.427449c7.382873,1.583719 82.286383,66.458666 82.286383,71.269032c0,2.146997 -7.872091,5.162494 -17.493393,6.700981l-17.493433,2.797181l-1.726516,29.830863c-2.214433,38.25925 -22.374886,82.415642 -50.443862,110.484539c-11.242185,11.242304 -22.449954,20.440432 -24.90609,20.440432c-2.456202,0 -12.947877,-11.234606 -23.314911,-24.965616l0,-0.000013zm-170.151534,69.976016c0,-2.760456 2.961306,-10.745402 6.580668,-17.744479c6.566679,-12.698503 6.528667,-12.760153 -17.952364,-29.014682c-38.302371,-25.431302 -66.772569,-70.570311 -75.727695,-120.065255l-2.935863,-16.226577l20.932782,-2.869051c43.15051,-5.914437 43.544552,-5.735659 52.186517,23.67398c5.831605,19.845633 13.003939,31.738719 28.464889,47.199603c11.367873,11.367927 22.257213,19.687148 24.198569,18.487357c1.941276,-1.199764 4.751132,-8.289041 6.244148,-15.75403c1.493003,-7.464989 4.606238,-13.572777 6.918276,-13.572777c5.308158,0 55.294974,78.815991 56.088552,88.436762c0.529977,6.42562 -26.491561,17.551075 -96.913832,39.902177c-4.490463,1.425168 -8.084634,0.334847 -8.084634,-2.453043l-0.000013,0.000013z" stroke-width="1.5" stroke="#000" fill="#fff"/>
 </g>
</svg>