<svg width="320" height="224" xmlns="http://www.w3.org/2000/svg">
 <!-- Created with Method Draw - http://github.com/duopixel/Method-Draw/ -->
 <g>
  <title>background</title>
  <rect fill="none" id="canvas_background" height="226" width="322" y="-1" x="-1"/>
 </g>
 <g>
  <title>Layer 1</title>
  <path opacity="0.5" id="svg_2" d="m160.299597,53.499997c-1.222669,0 -2.310466,0.501908 -3.228285,1.412326c-0.917043,0.909669 -1.675571,2.213152 -2.306769,3.841058c-1.26222,3.255362 -2.038659,7.828405 -2.463367,13.305049c-0.423873,5.466107 -0.495306,11.830883 -0.319206,18.644249c-15.102968,6.195881 -45.7346,18.988712 -48.19527,21.845081c-3.276099,3.802931 -2.217598,8.161303 -0.897415,11.054569l50.357484,-10.249415c1.064444,13.35674 2.577929,26.585887 3.896811,36.951938c-4.924657,1.441288 -14.117393,4.287167 -16.014887,6.051937c-2.613959,2.431116 -2.61394,10.282348 -2.61394,10.282348l20.610377,-1.6763c0.48542,3.384272 0.788992,5.358973 0.788992,5.358973l0.030118,0.178194l0.162623,0l0.379435,0l0.162619,0l0.030118,-0.178194c0,0 0.302996,-1.974737 0.788988,-5.358973l20.616403,1.6763c0,0 0.000024,-7.851232 -2.613944,-10.282348c-1.898204,-1.765452 -11.097652,-4.617784 -16.020913,-6.058578c1.316157,-10.334239 2.826972,-23.512765 3.890793,-36.826474l49.767259,10.130587c1.320167,-2.893266 2.384721,-7.251638 -0.891386,-11.054569c-2.43023,-2.821018 -32.321684,-15.329317 -47.611051,-21.607513c0.182679,-6.901675 0.115531,-13.353188 -0.313192,-18.881818l0,-0.013199c-0.424924,-5.470603 -1.20219,-10.039193 -2.463355,-13.29185c-0.631018,-1.627455 -1.383372,-2.931072 -2.300744,-3.841058c-0.917827,-0.910418 -2.005612,-1.412326 -3.228273,-1.412326l-0.000024,0.000004z" fill-opacity="null" stroke-opacity="null" stroke-width="1.5" stroke="#000" fill="#fff"/>
 </g>
</svg>