<svg width="304" height="224" xmlns="http://www.w3.org/2000/svg">
 <!-- Created with Method Draw - http://github.com/duopixel/Method-Draw/ -->
 <g>
  <title>background</title>
  <rect fill="none" id="canvas_background" height="226" width="306" y="-1" x="-1"/>
  <g display="none" overflow="visible" y="0" x="0" height="100%" width="100%" id="canvasGrid">
   <rect fill="url(#gridpattern)" stroke-width="0" y="0" x="0" height="100%" width="100%"/>
  </g>
 </g>
 <g>
  <title>Layer 1</title>
  <path opacity="0.51" id="svg_1" d="m152.289355,55.499999c-1.180868,0 -2.231475,0.484748 -3.117916,1.364041c-0.885691,0.878569 -1.618287,2.137489 -2.227905,3.70974c-1.219067,3.144067 -1.968961,7.560767 -2.379149,12.850175c-0.409382,5.279231 -0.478373,11.426408 -0.308292,18.006838c-14.586626,5.984055 -44.171022,18.339524 -46.547566,21.09824c-3.164096,3.672916 -2.141782,7.882284 -0.866734,10.676635l48.635858,-9.899007c1.028053,12.900099 2.489795,25.676967 3.763586,35.688622c-4.756292,1.392013 -13.634746,4.140597 -15.467369,5.845033c-2.524593,2.348001 -2.524574,9.930814 -2.524574,9.930814l19.905748,-1.618991c0.468824,3.26857 0.762017,5.17576 0.762017,5.17576l0.029089,0.172102l0.157063,0l0.366462,0l0.15706,0l0.029089,-0.172102c0,0 0.292637,-1.907224 0.762014,-5.17576l19.911567,1.618991c0,0 0.000023,-7.582813 -2.524578,-9.930814c-1.833308,-1.705095 -10.718244,-4.459911 -15.473188,-5.851447c1.27116,-9.980931 2.730323,-22.708909 3.757775,-35.567447l48.065812,9.784242c1.275033,-2.794351 2.303192,-7.003718 -0.860911,-10.676635c-2.347145,-2.724572 -31.216668,-14.805237 -45.98332,-20.868793c0.176433,-6.66572 0.111581,-12.896668 -0.302485,-18.236284l0,-0.012748c-0.410397,-5.283574 -1.16109,-9.695972 -2.379138,-12.837427c-0.609444,-1.571816 -1.336077,-2.830864 -2.222086,-3.70974c-0.886448,-0.879293 -1.937044,-1.364041 -3.117905,-1.364041l-0.000023,0.000004z" stroke-width="1.5" stroke="#000" fill="#fff"/>
 </g>
</svg>