<svg width="256" height="224" xmlns="http://www.w3.org/2000/svg">
 <!-- Created with Method Draw - http://github.com/duopixel/Method-Draw/ -->
 <g>
  <title>background</title>
  <rect fill="none" id="canvas_background" height="226" width="258" y="-1" x="-1"/>
 </g>
 <g>
  <title>Layer 1</title>
  <path opacity="0.5" id="svg_5" d="m128.302154,53.000008c-1.233119,0 -2.330213,0.506197 -3.255877,1.424397c-0.924881,0.917444 -1.689892,2.232068 -2.326485,3.873887c-1.273008,3.283185 -2.056083,7.895313 -2.484421,13.418766c-0.427496,5.512825 -0.49954,11.932 -0.321934,18.803599c-15.232051,6.248836 -46.125488,19.151006 -48.607189,22.031789c-3.3041,3.835434 -2.236551,8.231057 -0.905085,11.149051l50.787883,-10.337015c1.073542,13.470898 2.599963,26.813113 3.930116,37.267762c-4.966747,1.453606 -14.238052,4.323809 -16.151765,6.103662c-2.636301,2.451895 -2.636281,10.37023 -2.636281,10.37023l20.786532,-1.690627c0.489568,3.413196 0.795735,5.404776 0.795735,5.404776l0.030376,0.179717l0.164013,0l0.382678,0l0.164009,0l0.030376,-0.179717c0,0 0.305585,-1.991615 0.795731,-5.404776l20.792608,1.690627c0,0 0.000024,-7.918335 -2.636285,-10.37023c-1.914428,-1.780541 -11.192502,-4.657251 -16.157841,-6.11036c1.327406,-10.422564 2.851134,-23.713726 3.924047,-37.141225l50.192614,10.217172c1.33145,-2.917994 2.405103,-7.313617 -0.899004,-11.149051c-2.451001,-2.845128 -32.597934,-15.460335 -48.017977,-21.79219c0.18424,-6.960663 0.116518,-13.467316 -0.315869,-19.043198l0,-0.013312c-0.428556,-5.51736 -1.212465,-10.124997 -2.484409,-13.405454c-0.636411,-1.641365 -1.395195,-2.956123 -2.320408,-3.873887c-0.925672,-0.918199 -2.022754,-1.424397 -3.255865,-1.424397l-0.000024,0.000004z" fill-opacity="null" stroke-opacity="null" stroke-width="1.5" stroke="#000" fill="#fff"/>
 </g>
</svg>